<svg width="300" height="300" viewBox="0 0 300 300" fill="none" xmlns="http://www.w3.org/2000/svg">
<rect width="300" height="300" rx="50" fill="#0B2548"/>
<path d="M175 66C175 63.2386 172.761 61 170 61H130C127.239 61 125 63.2386 125 66V118C125 120.761 122.761 123 120 123H68C65.2386 123 63 125.239 63 128V168C63 170.761 65.2386 173 68 173H120C122.761 173 125 175.239 125 178V231C125 233.761 127.239 236 130 236H170C172.761 236 175 233.761 175 231V178C175 175.239 177.239 173 180 173H233C235.761 173 238 170.761 238 168V128C238 125.239 235.761 123 233 123H180C177.239 123 175 120.761 175 118V66Z" fill="url(#paint0_linear)"/>
<mask id="mask0" mask-type="alpha" maskUnits="userSpaceOnUse" x="63" y="61" width="175" height="175">
<path d="M175 66C175 63.2386 172.761 61 170 61H130C127.239 61 125 63.2386 125 66V118C125 120.761 122.761 123 120 123H68C65.2386 123 63 125.239 63 128V168C63 170.761 65.2386 173 68 173H120C122.761 173 125 175.239 125 178V231C125 233.761 127.239 236 130 236H170C172.761 236 175 233.761 175 231V178C175 175.239 177.239 173 180 173H233C235.761 173 238 170.761 238 168V128C238 125.239 235.761 123 233 123H180C177.239 123 175 120.761 175 118V66Z" fill="url(#paint1_linear)"/>
</mask>
<g mask="url(#mask0)">
<mask id="mask1" mask-type="alpha" maskUnits="userSpaceOnUse" x="63" y="125" width="175" height="73">
<rect x="63" y="125" width="175" height="73" fill="#C4C4C4"/>
</mask>
<g mask="url(#mask1)">
<ellipse cx="145.5" cy="180" rx="36.5" ry="36" fill="#90D7F4"/>
<ellipse cx="191.5" cy="182" rx="21.5" ry="21" fill="#90D7F4"/>
<ellipse cx="81.5" cy="175" rx="44.5" ry="44" fill="#90D7F4"/>
</g>
<mask id="mask2" mask-type="alpha" maskUnits="userSpaceOnUse" x="2" y="143" width="236" height="93">
<rect width="235.685" height="93" transform="matrix(-1 0 0 1 237.685 143)" fill="#C4C4C4"/>
</mask>
<g mask="url(#mask2)">
<path fill-rule="evenodd" clip-rule="evenodd" d="M171.291 255.136C182.258 268.301 199.369 276.767 218.594 276.767C251.693 276.767 278.525 251.671 278.525 220.712C278.525 189.754 251.693 164.658 218.594 164.658C195.976 164.658 176.284 176.376 166.081 193.676C157.283 185.952 145.434 181.219 132.4 181.219C105.251 181.219 83.2431 201.753 83.2431 227.082C83.2431 252.412 105.251 272.945 132.4 272.945C148.223 272.945 162.3 265.97 171.291 255.136Z" fill="#C6EAF8"/>
</g>
<g filter="url(#filter0_d)">
<mask id="mask3" mask-type="alpha" maskUnits="userSpaceOnUse" x="125" y="195" width="45" height="27">
<rect x="125" y="195" width="45" height="27" fill="#C4C4C4"/>
</mask>
<g mask="url(#mask3)">
<ellipse cx="153.155" cy="221.566" rx="13.2484" ry="13.4389" fill="white"/>
<g filter="url(#filter1_d)">
<ellipse cx="129.308" cy="222.434" rx="19.431" ry="19.5081" fill="white"/>
</g>
<rect x="139.62" y="211.83" width="17.02" height="10.17" fill="url(#paint2_linear)"/>
</g>
</g>
<g filter="url(#filter2_d)">
<mask id="mask4" mask-type="alpha" maskUnits="userSpaceOnUse" x="125" y="70" width="50" height="27">
<rect x="125" y="70" width="50" height="27" fill="#C4C4C4"/>
</mask>
<g mask="url(#mask4)">
<ellipse cx="175.155" cy="96.5665" rx="13.2484" ry="13.4389" fill="white"/>
<g filter="url(#filter3_d)">
<ellipse cx="151.308" cy="97.4335" rx="19.431" ry="19.5081" fill="white"/>
</g>
<rect x="161.62" y="86.83" width="17.02" height="10.17" fill="url(#paint3_linear)"/>
<g filter="url(#filter4_d)">
<ellipse cx="118.628" cy="95.6995" rx="25.6136" ry="25.5773" fill="white"/>
</g>
<rect x="135.72" y="81.745" width="17.02" height="15.255" fill="url(#paint4_linear)"/>
</g>
</g>
</g>
<g filter="url(#filter5_d)">
<mask id="mask5" mask-type="alpha" maskUnits="userSpaceOnUse" x="126" y="109" width="112" height="48">
<rect x="126" y="109" width="112" height="47.5152" fill="#C4C4C4"/>
</mask>
<g mask="url(#mask5)">
<g filter="url(#filter6_d)">
<circle cx="229.415" cy="151.925" r="25.1551" fill="white"/>
</g>
<g filter="url(#filter7_d)">
<circle cx="185.394" cy="151.624" r="34.2389" fill="white"/>
</g>
<g filter="url(#filter8_d)">
<circle cx="151.155" cy="157.913" r="25.1551" fill="white"/>
</g>
<rect x="163.733" y="131.36" width="26.5526" height="25.1551" fill="url(#paint5_linear)"/>
<rect x="212.645" y="132.758" width="26.5526" height="23.7576" fill="url(#paint6_linear)"/>
</g>
</g>
<defs>
<filter id="filter0_d" x="110" y="197.925" width="71.4032" height="49.0746" filterUnits="userSpaceOnUse" color-interpolation-filters="sRGB">
<feFlood flood-opacity="0" result="BackgroundImageFix"/>
<feColorMatrix in="SourceAlpha" type="matrix" values="0 0 0 0 0 0 0 0 0 0 0 0 0 0 0 0 0 0 127 0"/>
<feOffset dy="10"/>
<feGaussianBlur stdDeviation="7.5"/>
<feColorMatrix type="matrix" values="0 0 0 0 0 0 0 0 0 0 0 0 0 0 0 0 0 0 0.15 0"/>
<feBlend mode="normal" in2="BackgroundImageFix" result="effect1_dropShadow"/>
<feBlend mode="normal" in="SourceGraphic" in2="effect1_dropShadow" result="shape"/>
</filter>
<filter id="filter1_d" x="108.877" y="200.925" width="50.8619" height="51.0162" filterUnits="userSpaceOnUse" color-interpolation-filters="sRGB">
<feFlood flood-opacity="0" result="BackgroundImageFix"/>
<feColorMatrix in="SourceAlpha" type="matrix" values="0 0 0 0 0 0 0 0 0 0 0 0 0 0 0 0 0 0 127 0"/>
<feOffset dx="5" dy="4"/>
<feGaussianBlur stdDeviation="3"/>
<feColorMatrix type="matrix" values="0 0 0 0 0 0 0 0 0 0 0 0 0 0 0 0 0 0 0.4 0"/>
<feBlend mode="normal" in2="BackgroundImageFix" result="effect1_dropShadow"/>
<feBlend mode="normal" in="SourceGraphic" in2="effect1_dropShadow" result="shape"/>
</filter>
<filter id="filter2_d" x="110" y="65.1222" width="80" height="56.8778" filterUnits="userSpaceOnUse" color-interpolation-filters="sRGB">
<feFlood flood-opacity="0" result="BackgroundImageFix"/>
<feColorMatrix in="SourceAlpha" type="matrix" values="0 0 0 0 0 0 0 0 0 0 0 0 0 0 0 0 0 0 127 0"/>
<feOffset dy="10"/>
<feGaussianBlur stdDeviation="7.5"/>
<feColorMatrix type="matrix" values="0 0 0 0 0 0 0 0 0 0 0 0 0 0 0 0 0 0 0.15 0"/>
<feBlend mode="normal" in2="BackgroundImageFix" result="effect1_dropShadow"/>
<feBlend mode="normal" in="SourceGraphic" in2="effect1_dropShadow" result="shape"/>
</filter>
<filter id="filter3_d" x="130.877" y="75.9254" width="50.8619" height="51.0162" filterUnits="userSpaceOnUse" color-interpolation-filters="sRGB">
<feFlood flood-opacity="0" result="BackgroundImageFix"/>
<feColorMatrix in="SourceAlpha" type="matrix" values="0 0 0 0 0 0 0 0 0 0 0 0 0 0 0 0 0 0 127 0"/>
<feOffset dx="5" dy="4"/>
<feGaussianBlur stdDeviation="3"/>
<feColorMatrix type="matrix" values="0 0 0 0 0 0 0 0 0 0 0 0 0 0 0 0 0 0 0.4 0"/>
<feBlend mode="normal" in2="BackgroundImageFix" result="effect1_dropShadow"/>
<feBlend mode="normal" in="SourceGraphic" in2="effect1_dropShadow" result="shape"/>
</filter>
<filter id="filter4_d" x="92.0148" y="68.1222" width="63.2271" height="63.1546" filterUnits="userSpaceOnUse" color-interpolation-filters="sRGB">
<feFlood flood-opacity="0" result="BackgroundImageFix"/>
<feColorMatrix in="SourceAlpha" type="matrix" values="0 0 0 0 0 0 0 0 0 0 0 0 0 0 0 0 0 0 127 0"/>
<feOffset dx="5" dy="4"/>
<feGaussianBlur stdDeviation="3"/>
<feColorMatrix type="matrix" values="0 0 0 0 0 0 0 0 0 0 0 0 0 0 0 0 0 0 0.4 0"/>
<feBlend mode="normal" in2="BackgroundImageFix" result="effect1_dropShadow"/>
<feBlend mode="normal" in="SourceGraphic" in2="effect1_dropShadow" result="shape"/>
</filter>
<filter id="filter5_d" x="111" y="112.385" width="142" height="69.1301" filterUnits="userSpaceOnUse" color-interpolation-filters="sRGB">
<feFlood flood-opacity="0" result="BackgroundImageFix"/>
<feColorMatrix in="SourceAlpha" type="matrix" values="0 0 0 0 0 0 0 0 0 0 0 0 0 0 0 0 0 0 127 0"/>
<feOffset dy="10"/>
<feGaussianBlur stdDeviation="7.5"/>
<feColorMatrix type="matrix" values="0 0 0 0 0 0 0 0 0 0 0 0 0 0 0 0 0 0 0.15 0"/>
<feBlend mode="normal" in2="BackgroundImageFix" result="effect1_dropShadow"/>
<feBlend mode="normal" in="SourceGraphic" in2="effect1_dropShadow" result="shape"/>
</filter>
<filter id="filter6_d" x="203.26" y="124.77" width="62.3102" height="62.3102" filterUnits="userSpaceOnUse" color-interpolation-filters="sRGB">
<feFlood flood-opacity="0" result="BackgroundImageFix"/>
<feColorMatrix in="SourceAlpha" type="matrix" values="0 0 0 0 0 0 0 0 0 0 0 0 0 0 0 0 0 0 127 0"/>
<feOffset dx="5" dy="4"/>
<feGaussianBlur stdDeviation="3"/>
<feColorMatrix type="matrix" values="0 0 0 0 0 0 0 0 0 0 0 0 0 0 0 0 0 0 0.4 0"/>
<feBlend mode="normal" in2="BackgroundImageFix" result="effect1_dropShadow"/>
<feBlend mode="normal" in="SourceGraphic" in2="effect1_dropShadow" result="shape"/>
</filter>
<filter id="filter7_d" x="150.155" y="115.385" width="80.4777" height="80.4777" filterUnits="userSpaceOnUse" color-interpolation-filters="sRGB">
<feFlood flood-opacity="0" result="BackgroundImageFix"/>
<feColorMatrix in="SourceAlpha" type="matrix" values="0 0 0 0 0 0 0 0 0 0 0 0 0 0 0 0 0 0 127 0"/>
<feOffset dx="5" dy="4"/>
<feGaussianBlur stdDeviation="3"/>
<feColorMatrix type="matrix" values="0 0 0 0 0 0 0 0 0 0 0 0 0 0 0 0 0 0 0.4 0"/>
<feBlend mode="normal" in2="BackgroundImageFix" result="effect1_dropShadow"/>
<feBlend mode="normal" in="SourceGraphic" in2="effect1_dropShadow" result="shape"/>
</filter>
<filter id="filter8_d" x="125" y="130.758" width="62.3102" height="62.3102" filterUnits="userSpaceOnUse" color-interpolation-filters="sRGB">
<feFlood flood-opacity="0" result="BackgroundImageFix"/>
<feColorMatrix in="SourceAlpha" type="matrix" values="0 0 0 0 0 0 0 0 0 0 0 0 0 0 0 0 0 0 127 0"/>
<feOffset dx="5" dy="4"/>
<feGaussianBlur stdDeviation="3"/>
<feColorMatrix type="matrix" values="0 0 0 0 0 0 0 0 0 0 0 0 0 0 0 0 0 0 0.4 0"/>
<feBlend mode="normal" in2="BackgroundImageFix" result="effect1_dropShadow"/>
<feBlend mode="normal" in="SourceGraphic" in2="effect1_dropShadow" result="shape"/>
</filter>
<linearGradient id="paint0_linear" x1="150.644" y1="61" x2="156.629" y2="235.795" gradientUnits="userSpaceOnUse">
<stop stop-color="#2D78E9"/>
<stop offset="1" stop-color="#1BDFEC"/>
</linearGradient>
<linearGradient id="paint1_linear" x1="150.644" y1="61" x2="156.629" y2="235.795" gradientUnits="userSpaceOnUse">
<stop stop-color="#2D78E9"/>
<stop offset="1" stop-color="#1BDFEC"/>
</linearGradient>
<linearGradient id="paint2_linear" x1="148.13" y1="211.83" x2="148.13" y2="222" gradientUnits="userSpaceOnUse">
<stop stop-color="white" stop-opacity="0"/>
<stop offset="0.859375" stop-color="white"/>
</linearGradient>
<linearGradient id="paint3_linear" x1="170.13" y1="86.83" x2="170.13" y2="97" gradientUnits="userSpaceOnUse">
<stop stop-color="white" stop-opacity="0"/>
<stop offset="0.859375" stop-color="white"/>
</linearGradient>
<linearGradient id="paint4_linear" x1="144.23" y1="81.745" x2="144.23" y2="97" gradientUnits="userSpaceOnUse">
<stop stop-color="white" stop-opacity="0"/>
<stop offset="0.859375" stop-color="white"/>
</linearGradient>
<linearGradient id="paint5_linear" x1="177.009" y1="131.36" x2="177.009" y2="156.515" gradientUnits="userSpaceOnUse">
<stop stop-color="white" stop-opacity="0"/>
<stop offset="0.859375" stop-color="white"/>
</linearGradient>
<linearGradient id="paint6_linear" x1="225.922" y1="132.758" x2="225.922" y2="156.515" gradientUnits="userSpaceOnUse">
<stop stop-color="white" stop-opacity="0"/>
<stop offset="0.859375" stop-color="white"/>
</linearGradient>
</defs>
</svg>
